<?xml version="1.0" encoding="utf-8"?>
<!-- Generator: Adobe Illustrator 17.1.0, SVG Export Plug-In . SVG Version: 6.00 Build 0)  -->
<!DOCTYPE svg PUBLIC "-//W3C//DTD SVG 1.1//EN" "http://www.w3.org/Graphics/SVG/1.1/DTD/svg11.dtd">
<svg version="1.1" id="Layer_1" xmlns="http://www.w3.org/2000/svg" xmlns:xlink="http://www.w3.org/1999/xlink" x="0px" y="0px"
	 viewBox="0 0 841.9 595.3" enable-background="new 0 0 841.9 595.3" xml:space="preserve">
<path d="M841.4,371.1c-21.5,20.7-24.1,55.8-46.3,75.7c-0.8,0.7-1.6,1.4-2.6,1.4c-1.3,0.1-2.4-0.9-3.2-1.8c-2.2-2.3-4-4.9-5.4-7.7
	c-12.6,10.5-20.8,26-22.3,42.3c-0.3,3.6-0.4,7.2-1.6,10.6c-1.8,5.1-6,8.9-9.8,12.8c-6.5,6.7-12.5,15.6-16.8,23.9c-3-0.5-5,3.2-5,6.3
	s0.8,6.4-0.8,9c-0.7,1.2-1.9,2.1-3,2.9c-11.3,8.4-23.1,17-36.9,19.6c-11.7,2.2-23.7,0-35.4-2.3c-6.6-1.3-13.3-2.6-19.2-5.8
	s-10.9-8.7-11.9-15.3c-12.8,8-23,20.2-28.7,34.2c-2.9-7.3-5.9-14.6-8.8-21.9c-0.8-1.9-1.7-4-3.6-4.9c-2.4-1.2-5.3,0.2-7.6,1.7
	c-6.2,4.1-11.7,9.1-16.2,15c-4.6-3.7-11.4-3.9-16.9-1.8s-10.1,6.3-14,10.7c-3.9,4.4-7.9,9.6-13.7,10.6c-4.1,0.7-8.3-0.9-11.7-3.3
	c-6.2-4.4-10.2-11.2-15.2-16.9s-12-10.9-19.5-9.9c-4,0.5-7.6,2.7-11,5c-9.8,6.6-19,14.2-27.2,22.7c-13.2-9.4-24.4-21.6-32.5-35.6
	c-0.9-1.6-1.9-3.4-3.6-4.2c-2.2-1.2-4.9-0.4-7.2,0.4c-10.6,3.7-21.1,8.4-30.2,15.1c0.2,1.9,0.4,3.7,0.6,5.6
	c-13.9-5.2-26.2-14.7-34.6-27c-16.9-2.8-35,7.3-41.7,23.1c-24.2-2.4-49.2,3.2-70,15.8c-8.1-7.8-13.3-18.5-14.3-29.7
	c-0.1-1-0.2-2.2-0.8-3c-1-1.4-2.9-1.6-4.6-1.6c-22-0.8-45.7-1.2-63.7,11.4c-1.7,1.2-3.5,2.6-5.5,3c-2.3,0.5-4.7-0.4-6.9-1.5
	c-9.1-4.6-15.3-13.5-20.3-22.5c-5-9-9.2-18.5-16.2-26s-17.6-12.7-27.5-10c4.1,4.9,5.5,11.9,3.7,18.1c-8.1-1-16.3-1.6-24.4-1.9
	c6.7-6.3,14-13.7,13.8-22.9c-0.1-4.7-2.3-9.2-2.6-13.9c-0.5-7.2,3.2-14,4.8-21c2.6-11.3-0.2-23-3-34.2c-1.6-6.4-3.3-13.1-7.8-17.9
	c-4.5-4.8-12.6-6.9-17.7-2.7c0.2-19.7,2.4-39.4,6.7-58.7c0.3-1.6,0.7-3.3,0.1-4.8c-0.7-1.6-2.4-2.6-3.9-3.5
	c-6.2-3.8-11.4-9.1-15-15.4L0,318.1v277.2h841.9L841.4,371.1z"/>
</svg>
